<svg width="27" height="27" viewBox="0 0 27 27" fill="none" xmlns="http://www.w3.org/2000/svg">
<path d="M25.38 13.7812C25.38 12.9038 25.3013 12.06 25.155 11.25H13.5V16.0369H20.16C19.8731 17.5838 19.0013 18.8944 17.6906 19.7719V22.8769H21.69C24.03 20.7225 25.38 17.55 25.38 13.7812Z" fill="#4285F4"/>
<path d="M13.4999 25.8753C16.8412 25.8753 19.6424 24.7672 21.6899 22.8772L17.6905 19.7722C16.5824 20.5147 15.1649 20.9534 13.4999 20.9534C10.2768 20.9534 7.54866 18.7766 6.57554 15.8516H2.44116V19.0578C4.47741 23.1022 8.66241 25.8753 13.4999 25.8753Z" fill="#34A853"/>
<path d="M6.57563 15.8541C6.32813 15.1116 6.1875 14.3184 6.1875 13.5028C6.1875 12.6872 6.32813 11.8941 6.57563 11.1516V7.94531H2.44125C1.575 9.66978 1.12424 11.573 1.125 13.5028C1.125 15.4997 1.60313 17.3897 2.44125 19.0603L6.57563 15.8541Z" fill="#FBBC05"/>
<path d="M13.4999 6.04688C15.3168 6.04688 16.948 6.67125 18.2305 7.8975L21.7799 4.34812C19.6368 2.35125 16.8355 1.125 13.4999 1.125C8.66241 1.125 4.47741 3.89812 2.44116 7.9425L6.57554 11.1488C7.54866 8.22375 10.2768 6.04688 13.4999 6.04688Z" fill="#EA4335"/>
</svg>
