<svg width="12" height="18" viewBox="0 0 12 18" fill="none" xmlns="http://www.w3.org/2000/svg">
<path d="M3.50008 15.666H8.50008V17.3327H3.50008V15.666ZM10.0884 10.426C10.9467 9.42102 11.8334 8.38185 11.8334 6.49935C11.8334 3.28352 9.21591 0.666016 6.00008 0.666016C2.78425 0.666016 0.166748 3.28352 0.166748 6.49935C0.166748 8.40352 1.05591 9.43935 1.91758 10.441C2.21591 10.7893 2.52508 11.1502 2.82092 11.5652C2.94092 11.7368 3.13758 12.3952 3.31341 13.166H2.65341V14.8327H9.34675V13.166H8.68841C8.86592 12.3935 9.06342 11.7335 9.18258 11.5618C9.47591 11.1427 9.78758 10.7785 10.0884 10.426Z" fill="black"/>
</svg>
