<svg width="50" height="50" viewBox="0 0 50 50" fill="none" xmlns="http://www.w3.org/2000/svg">
<path d="M31.25 16.6641C31.25 20.1158 28.4519 22.9141 25 22.9141C21.5481 22.9141 18.75 20.1158 18.75 16.6641C18.75 13.2123 21.5481 10.4141 25 10.4141C28.4519 10.4141 31.25 13.2123 31.25 16.6641Z" stroke="#1E1E1E" stroke-width="3.125" stroke-linecap="round" stroke-linejoin="round"/>
<path d="M33.3333 8.33594C36.7849 8.33594 39.5833 11.1342 39.5833 14.5859C39.5833 17.134 38.0583 19.326 35.8714 20.2991" stroke="#1E1E1E" stroke-width="3.125" stroke-linecap="round" stroke-linejoin="round"/>
<path d="M28.5715 29.1641H21.4286C16.4975 29.1641 12.5 33.1616 12.5 38.0926C12.5 40.0651 14.099 41.6641 16.0714 41.6641H33.9286C35.9011 41.6641 37.5 40.0651 37.5 38.0926C37.5 33.1616 33.5025 29.1641 28.5715 29.1641Z" stroke="#1E1E1E" stroke-width="3.125" stroke-linecap="round" stroke-linejoin="round"/>
<path d="M36.9048 27.0859C41.8358 27.0859 45.8333 31.0834 45.8333 36.0145C45.8333 37.987 44.2344 39.5859 42.2619 39.5859" stroke="#1E1E1E" stroke-width="3.125" stroke-linecap="round" stroke-linejoin="round"/>
<path d="M16.6667 8.33594C13.215 8.33594 10.4167 11.1342 10.4167 14.5859C10.4167 17.134 11.9416 19.326 14.1286 20.2991" stroke="#141B34" stroke-width="3.125" stroke-linecap="round" stroke-linejoin="round"/>
<path d="M7.73819 39.5859C5.76573 39.5859 4.16675 37.987 4.16675 36.0145C4.16675 31.0834 8.16421 27.0859 13.0953 27.0859" stroke="#141B34" stroke-width="3.125" stroke-linecap="round" stroke-linejoin="round"/>
</svg>
