<svg width="18" height="17" viewBox="0 0 18 17" fill="none" xmlns="http://www.w3.org/2000/svg">
<g clip-path="url(#clip0_1661_32565)">
<path d="M8.88623 1.39844C12.7523 1.39844 15.8862 4.53234 15.8862 8.39844C15.8877 10.2363 15.1663 12.0009 13.8779 13.3115C12.5894 14.622 10.8372 15.3733 8.99965 15.4031C7.16206 15.4328 5.38647 14.7387 4.05623 13.4706C2.72599 12.2025 1.94782 10.4622 1.88973 8.62524L1.88623 8.39844L1.88903 8.20244C1.99263 4.42734 5.08523 1.39844 8.88623 1.39844ZM8.88623 7.69844H8.18623L8.10433 7.70334C7.9342 7.72357 7.77739 7.80551 7.66362 7.93361C7.54985 8.06172 7.48701 8.2271 7.48701 8.39844C7.48701 8.56977 7.54985 8.73516 7.66362 8.86326C7.77739 8.99137 7.9342 9.0733 8.10433 9.09354L8.18623 9.09844V11.1984L8.19113 11.2803C8.20956 11.4366 8.28009 11.5821 8.39134 11.6933C8.50259 11.8046 8.64808 11.8751 8.80433 11.8935L8.88623 11.8984H9.58623L9.66813 11.8935C9.82438 11.8751 9.96987 11.8046 10.0811 11.6933C10.1924 11.5821 10.2629 11.4366 10.2813 11.2803L10.2862 11.1984L10.2813 11.1165C10.2646 10.9737 10.2043 10.8395 10.1086 10.7322C10.0129 10.6249 9.88649 10.5496 9.74653 10.5166L9.66813 10.5026L9.58623 10.4984V8.39844L9.58133 8.31654C9.5629 8.16029 9.49237 8.0148 9.38112 7.90355C9.26987 7.79229 9.12438 7.72176 8.96813 7.70334L8.88623 7.69844ZM8.89323 5.59844L8.80433 5.60334C8.6342 5.62357 8.47739 5.70551 8.36362 5.83361C8.24985 5.96172 8.18701 6.1271 8.18701 6.29844C8.18701 6.46977 8.24985 6.63516 8.36362 6.76326C8.47739 6.89137 8.6342 6.9733 8.80433 6.99354L8.88623 6.99844L8.97513 6.99354C9.14526 6.9733 9.30207 6.89137 9.41584 6.76326C9.52961 6.63516 9.59245 6.46977 9.59245 6.29844C9.59245 6.1271 9.52961 5.96172 9.41584 5.83361C9.30207 5.70551 9.14526 5.62357 8.97513 5.60334L8.89323 5.59844Z" fill="#1E1E1E"/>
</g>
<defs>
<clipPath id="clip0_1661_32565">
<rect width="16.8" height="16.8" fill="white" transform="translate(0.48584)"/>
</clipPath>
</defs>
</svg>
